<?xml version="1.0" standalone="no"?>
<!DOCTYPE svg PUBLIC "-//W3C//DTD SVG 20010904//EN"
 "http://www.w3.org/TR/2001/REC-SVG-20010904/DTD/svg10.dtd">
<svg version="1.0" xmlns="http://www.w3.org/2000/svg"
 width="186.000000pt" height="186.000000pt" viewBox="0 0 186.000000 186.000000"
 preserveAspectRatio="xMidYMid meet">

<g transform="translate(0.000000,186.000000) scale(0.100000,-0.100000)"
fill="#C31017" stroke="none">
<path d="M655 1854 c-311 -51 -548 -263 -631 -565 -27 -98 -25 -281 5 -384 37
-133 94 -227 196 -330 75 -76 105 -98 185 -138 52 -26 124 -55 160 -64 89 -24
282 -24 370 0 79 21 195 75 255 118 l44 32 168 -161 c92 -88 211 -204 263
-256 52 -53 99 -96 105 -96 6 0 29 18 50 41 l40 40 -70 67 c-38 36 -159 154
-268 260 l-198 193 35 48 c46 63 101 179 123 261 24 88 24 281 0 370 -9 36
-38 108 -64 160 -40 80 -62 110 -138 185 -102 102 -197 159 -325 195 -74 20
-242 34 -305 24z m181 -125 c247 -34 438 -193 520 -434 36 -107 38 -263 4
-370 -63 -200 -225 -362 -425 -425 -107 -34 -263 -32 -370 4 -241 83 -400 274
-434 522 -46 334 196 655 531 703 89 12 88 12 174 0z"/>
</g>
</svg>
