<?xml version="1.0" standalone="no"?>
<!DOCTYPE svg PUBLIC "-//W3C//DTD SVG 20010904//EN"
 "http://www.w3.org/TR/2001/REC-SVG-20010904/DTD/svg10.dtd">
<svg version="1.0" xmlns="http://www.w3.org/2000/svg"
 width="390.000000pt" height="401.000000pt" viewBox="0 0 390.000000 401.000000"
 preserveAspectRatio="xMidYMid meet">

<g transform="translate(0.000000,401.000000) scale(0.100000,-0.100000)"
fill="#B7202E" stroke="none">
<path d="M2965 3996 c-153 -30 -283 -97 -398 -205 -171 -161 -257 -375 -244
-611 3 -58 13 -132 22 -165 10 -33 19 -69 22 -80 4 -18 -53 -50 -451 -257
l-456 -237 -107 108 c-95 95 -119 113 -203 154 -142 69 -200 82 -365 81 -131
0 -146 -2 -235 -33 -119 -40 -212 -95 -295 -173 -112 -104 -184 -223 -227
-374 -32 -112 -32 -296 0 -408 43 -151 115 -270 226 -373 268 -251 679 -283
982 -75 55 37 164 143 209 203 l20 26 453 -236 c396 -206 453 -239 448 -256
-2 -11 -15 -54 -27 -95 -29 -99 -31 -292 -5 -390 40 -146 100 -254 200 -359
237 -249 615 -313 926 -156 191 96 333 266 400 480 28 90 38 259 20 358 -74
426 -485 717 -909 643 -175 -31 -315 -106 -443 -238 l-77 -79 -456 237 c-442
230 -457 239 -451 263 3 14 13 60 22 101 21 97 14 265 -15 365 -11 39 -17 73
-13 77 4 4 211 113 461 243 l454 236 38 -43 c21 -24 38 -46 39 -50 1 -18 165
-136 235 -169 107 -51 180 -69 305 -76 239 -13 452 74 617 250 281 301 281
769 -2 1076 -90 98 -230 183 -367 221 -94 27 -259 34 -353 16z"/>
</g>
</svg>
