<?xml version="1.0" standalone="no"?>
<!DOCTYPE svg PUBLIC "-//W3C//DTD SVG 20010904//EN"
 "http://www.w3.org/TR/2001/REC-SVG-20010904/DTD/svg10.dtd">
<svg version="1.0" xmlns="http://www.w3.org/2000/svg"
 width="591.000000pt" height="591.000000pt" viewBox="0 0 591.000000 591.000000"
 preserveAspectRatio="xMidYMid meet">

<g transform="translate(0.000000,591.000000) scale(0.100000,-0.100000)"
fill="#000000" stroke="none">
<path d="M861 4664 c-172 -46 -308 -176 -368 -353 l-22 -66 -1 -1286 c0 -1154
2 -1291 16 -1340 56 -186 186 -316 380 -376 56 -17 148 -18 2089 -18 1941 0
2033 1 2089 18 188 58 312 175 371 350 l25 76 0 1286 0 1286 -25 76 c-59 176
-194 302 -372 348 -85 22 -4099 21 -4182 -1z m4135 -208 c64 -17 109 -47 162
-109 58 -67 72 -122 72 -284 l0 -133 -2275 0 -2275 0 0 133 c0 88 5 150 15
183 16 53 80 138 131 172 81 53 -30 51 2124 51 1654 1 2004 -2 2046 -13z m232
-1923 c-3 -846 -3 -859 -24 -903 -26 -57 -106 -137 -164 -164 l-45 -21 -2020
-3 c-1820 -2 -2025 -1 -2075 14 -45 13 -67 28 -122 83 -105 107 -98 36 -98
1013 l0 838 2275 0 2275 0 -2 -857z"/>
<path d="M1220 2955 l0 -105 865 0 865 0 0 105 0 105 -865 0 -865 0 0 -105z"/>
</g>
</svg>
