<?xml version="1.0" standalone="no"?>
<!DOCTYPE svg PUBLIC "-//W3C//DTD SVG 20010904//EN"
 "http://www.w3.org/TR/2001/REC-SVG-20010904/DTD/svg10.dtd">
<svg version="1.0" xmlns="http://www.w3.org/2000/svg"
 width="195.000000pt" height="177.000000pt" viewBox="0 0 195.000000 177.000000"
 preserveAspectRatio="xMidYMid meet">

<g transform="translate(0.000000,177.000000) scale(0.100000,-0.100000)"
fill="#C31017" stroke="none">
<path d="M903 1759 c-186 -32 -339 -167 -405 -358 -34 -98 -32 -258 3 -358 15
-39 40 -92 57 -117 l31 -45 -102 -67 c-63 -42 -140 -106 -203 -168 -177 -178
-257 -343 -279 -573 l-7 -73 977 0 978 0 -8 82 c-13 159 -65 304 -156 440 -58
87 -207 231 -312 302 -48 33 -87 62 -87 66 0 3 16 35 35 71 133 251 59 568
-167 718 -100 68 -243 100 -355 80z m244 -158 c218 -117 289 -399 154 -609
-47 -71 -88 -107 -171 -146 -57 -27 -76 -31 -150 -31 -75 0 -93 4 -152 32
-320 152 -308 631 19 769 50 21 71 24 148 21 79 -3 97 -7 152 -36z m313 -916
c194 -150 321 -339 354 -527 l7 -38 -841 0 -840 0 0 28 c0 16 8 53 19 83 66
192 199 349 418 495 l82 55 60 -31 c170 -85 367 -81 521 13 l55 33 55 -34 c30
-19 80 -54 110 -77z"/>
</g>
</svg>
