<?xml version="1.0" standalone="no"?>
<!DOCTYPE svg PUBLIC "-//W3C//DTD SVG 20010904//EN"
 "http://www.w3.org/TR/2001/REC-SVG-20010904/DTD/svg10.dtd">
<svg version="1.0" xmlns="http://www.w3.org/2000/svg"
 width="201.000000pt" height="181.000000pt" viewBox="0 0 201.000000 181.000000"
 preserveAspectRatio="xMidYMid meet">

<g transform="translate(0.000000,181.000000) scale(0.100000,-0.100000)"
fill="#C31017" stroke="none">
<path d="M0 1750 l0 -59 137 -3 136 -3 113 -489 c63 -269 116 -491 117 -493 7
-6 1312 19 1318 26 8 8 183 920 178 925 -2 2 -296 -2 -654 -10 -357 -7 -714
-13 -791 -14 l-142 0 -17 73 c-9 39 -19 80 -22 90 -4 15 -22 17 -189 17 l-184
0 0 -60z m1850 -237 c-1 -24 -126 -662 -131 -667 -4 -4 -1111 -23 -1118 -19
-4 3 -147 612 -152 653 l-4 25 525 11 c854 17 880 17 880 -3z"/>
<path d="M1466 570 c-60 -24 -128 -88 -158 -149 -33 -70 -31 -169 5 -244 55
-111 151 -163 283 -155 59 4 83 11 121 34 122 75 172 230 118 360 -8 19 -35
56 -60 83 -80 86 -201 113 -309 71z m174 -122 c51 -27 78 -60 90 -111 30 -135
-119 -244 -239 -176 -55 31 -75 65 -79 134 -3 50 0 66 20 95 25 38 97 80 138
80 14 0 46 -10 70 -22z"/>
<path d="M708 567 c-128 -37 -215 -161 -205 -297 10 -155 126 -263 282 -264
164 -2 285 119 285 284 0 73 -23 138 -66 188 -67 78 -196 117 -296 89z m163
-140 c97 -65 107 -180 22 -258 -70 -66 -178 -53 -240 27 -23 30 -28 47 -28 93
0 64 26 109 79 142 45 27 123 26 167 -4z"/>
</g>
</svg>
