<?xml version="1.0" standalone="no"?>
<!DOCTYPE svg PUBLIC "-//W3C//DTD SVG 20010904//EN"
 "http://www.w3.org/TR/2001/REC-SVG-20010904/DTD/svg10.dtd">
<svg version="1.0" xmlns="http://www.w3.org/2000/svg"
 width="276.000000pt" height="308.000000pt" viewBox="0 0 276.000000 308.000000"
 preserveAspectRatio="xMidYMid meet">

<g transform="translate(0.000000,308.000000) scale(0.100000,-0.100000)"
fill="#C31017" stroke="none">
<path d="M492 3065 c-115 -32 -173 -78 -282 -223 -149 -197 -219 -381 -207
-546 8 -101 27 -167 83 -281 94 -193 223 -343 554 -645 324 -296 436 -428 535
-625 67 -135 88 -220 83 -336 -7 -143 -70 -239 -196 -296 -67 -31 -173 -34
-272 -8 -87 22 -266 96 -367 151 -46 24 -83 42 -83 40 0 -11 174 -114 264
-157 186 -89 358 -133 521 -133 112 -1 166 17 220 71 l31 30 41 -37 c92 -81
236 -89 483 -24 117 31 235 80 361 151 140 80 172 111 49 49 -212 -108 -361
-157 -480 -158 -263 -1 -399 227 -309 519 65 211 225 425 514 689 442 404 597
592 679 823 55 152 53 286 -4 443 -34 94 -79 170 -179 301 -121 160 -213 212
-376 212 -158 0 -278 -58 -433 -209 -90 -87 -174 -196 -267 -346 -32 -52 -66
-104 -74 -115 -9 -11 14 8 51 42 212 195 434 342 599 397 194 65 396 32 517
-85 52 -49 57 -75 56 -259 -2 -393 -156 -761 -423 -1012 -44 -41 -157 -137
-253 -213 -283 -226 -432 -391 -519 -572 l-31 -66 -38 76 c-93 184 -227 331
-515 562 -299 240 -410 362 -512 561 -63 122 -106 244 -135 377 -18 83 -22
136 -22 287 -1 168 1 188 19 220 26 45 130 115 203 137 86 26 228 24 322 -6
166 -52 391 -193 573 -360 98 -89 103 -90 57 -16 -203 332 -358 490 -562 572
-78 32 -199 40 -276 18z"/>
</g>
</svg>
