<svg id="Capa_1" data-name="Capa 1" xmlns="http://www.w3.org/2000/svg" viewBox="0 0 1042.46 456.82"><title>Logo SuaveSed</title><path d="M867.25,734.47a1.06,1.06,0,0,1-.2-.24,1.17,1.17,0,0,0,.08.36S867.25,734.47,867.25,734.47Z" transform="translate(-18.77 -311.59)"/><path d="M1057.52,693.8a3.1,3.1,0,0,0-4,3c-.08,2.59-1.45,4.56-2.3,6.66-5.65,14.53-11.54,29-23.65,39.71-4,3.55-8.63,3.79-12.22,0a15.54,15.54,0,0,1-4.44-12.07c.93-9.48,2.34-19,5.32-28.12,3.07-9.61,8.2-18.2,12.47-27.2,6.78-14.25,12.59-28.89,18.85-43.38,2.74-6.34,5.61-12.63,8.35-18.89-27.76-2.74-50,6.9-67.43,28,4.24-10.25,8.47-20.5,12.91-31.19a26.49,26.49,0,0,0-3.14,0,136.43,136.43,0,0,1-22.52,2.78A17.76,17.76,0,0,0,960.43,622c-2,3.15-2.95,6.82-3.92,10.45Q950,657,943.4,681.45c1.45-8.15-.25-16.18-.57-24.25s-2.54-15.7-7.71-22.28c-2.78-3.51-5.36-7-6-11.9-.36-3-2.58-5.89-4.68-8.56-7.59-9.64-27.44-10.49-37.61-3.75a77.17,77.17,0,0,0-17.59,15.66,100.58,100.58,0,0,0-17.4,32.52c-4.23,12.75-4.72,26.07-5.6,39.22-1.22,18-8.88,32.65-21.27,45-5.65,5.65-8.68,5.12-11.7-2.91-3.92-10.33-3.39-21-2.22-31.88,1.09-10.37,4-20.05,7.66-29.7A22.5,22.5,0,0,1,819,683c0,1.29-.33,3.07,1.13,3.35,1.69.36,1.37-1.49,1.85-2.58,6.3-14.29,12.71-28.53,19-42.82,3-6.82,5.89-13.72,9-21.1-2.42.56-4.24.24-6.22.73a241.34,241.34,0,0,1-24.33,5.16,18.56,18.56,0,0,0-13.23,8c-3.23,4.44-4.52,9.56-6.26,14.57A222.33,222.33,0,0,0,788,707.64a15.29,15.29,0,0,1-2.87,7.79,124.08,124.08,0,0,1-25.26,27.19c-13.12,10.33-26,7.31-35.83-5.65-9.65-12.63-11.59-27.15-10.41-42.25a62.55,62.55,0,0,1,7.78-26.18c-.24,3.71-2.38,6.25-.52,8.55,1.21-.08,1.13-.85,1.45-1.33,6.7-11.46,13.56-22.64,26.71-28.09,7-2.86,13.16-.24,14.77,7.23,1.54,7.26-.4,14.28-2.46,21.1a29.27,29.27,0,0,0-.68,13.64c.88-.4,1.17-1.17,1.65-1.78a78.7,78.7,0,0,0,16.83-34.22,73.89,73.89,0,0,0,2.06-23.2c-.77-8-3.35-14.89-11.46-18.6-7.51-3.43-15-2.91-22.6-.85-11.26,3.07-19.41,10.45-26.84,19-14,16.22-20.58,35.23-22.43,56.25-.49,5.41,0,11-1.17,16.22-4,19.25-16.39,32.65-32.61,42.74-4.28,2.66-9.2,4.23-14.77,3.1-10.21-2.05-16.54-8.63-20.86-17.39-7-14.32-8.31-29.46-4.68-45a74.72,74.72,0,0,1,6-16.87,11.74,11.74,0,0,1-1,4.92c-.68,1.34-1,2.59.32,3.35,1.9,1.09,1.7-1,2.26-1.89,5.69-8.84,10.38-18.61,19.7-24.42,4.64-2.94,9.44-7,15.53-4,5.93,2.9,6.18,8.63,6.18,14.32,0,7.55-2.1,14.57-5,21.39-1,2.38-.36,3.59,1.38,4.68s3.1-.36,4-1.61c11.5-16.47,17.72-34.71,16.83-54.84-.37-8.48-3.23-16.35-12.51-19.82s-18.16-2.22-26.64,1.46c-14.92,6.41-24.65,18.56-32.16,32.28A105.88,105.88,0,0,0,606,700.49a58.06,58.06,0,0,1-1.45,15.22c-2.46,10.65-8.43,19.49-16.26,27.08q-7.75,7.56-11.46-3a63.39,63.39,0,0,1-3.07-25.87c.77-10.57,3.35-20.5,6.7-30.59-.16,1.82,1.17,2.87,2.06,5.09,9-21.11,17.79-41.6,27.07-63.27-10.65,4.76-20.78,3.87-30.46,5.56-8.6,1.5-10.29,1.09-12.11,9.08-.93,3.92-3,7.55-4.24,11.38-3.79,12.23-8.83,24.13-10.12,37.05-.65,6.62-1.09,13.27-2.35,19.81-2.5,13.16-9.84,23.85-18.32,33.86-3.83,4.48-9.92,5.32-12.06,1.45a27.31,27.31,0,0,1-3.19-7.3,77.84,77.84,0,0,1-1-27.36c1.33-10.05,3.47-19.78,7.63-29-.32,6.22-2.54,12.15-2.62,18.48,1.45-.32,1.61-1.13,2-2.09,5.33-14.17,10.74-28.29,16.1-42.42,5.21-13.55,10.82-26.95,17.07-40.07.41-.92,1-1.81.49-2.66-.81-1.29-1.62.08-2.42.32a106.12,106.12,0,0,1-27.56,4c-7.27,0-10.09,2.14-12.43,9.12-2.79,8.27-5.49,16.58-8.32,24.86-6.45,18.76-11.29,37.89-12,57.9-.61,16.83-9.61,28.13-23.81,36-3.35,1.85-5.41.52-7.3-2.42-3.15-4.93-3.27-10.49-3.68-15.9-.44-6.18,1.09-12.31,1.78-18.44,1.33-11.91,5-23.17,8.11-35,1.49,2.34-.52,5.12,2.1,6.58,1.61-2.54,1.94-5.49,2.82-8.32C484.5,635.45,497.45,602,511,568.74c3.67-9.08,7.47-18.16,11.18-27.28a3.12,3.12,0,0,0,.2-2.22c-.52-1-1.29-.2-2,.08-7.38,2.87-15,3.35-22.88,3.31-9,0-15.09,4.2-17.43,11.75-3,9.52-6.09,19-9.24,28.49a910.49,910.49,0,0,0-25.34,91.64,359.87,359.87,0,0,0-6.18,42c-1,10.89-4.88,20.66-14.81,26-15.29,8.19-28.16,6.38-33.33-11.66-2.38-8.35-1.33-17.07.16-25.54.85-4.85,1.09-9.93,4.16-14.65.52,2.42-.4,4.88,2,6.42,3.95-10.29,7.87-20.5,13.8-29.79a106.38,106.38,0,0,1,16.18-20.41c1.53-1.42,2.86-3.23,5.61-1.94,2.54,1.21,3.67,2.86,3.35,5.61-.24,1.89-.36,3.79-.53,5.65-.6,7.26-4,14-3.35,21.47.17,1.65-.88,4.19,1.13,4.72s2.51-2,3.31-3.47a135,135,0,0,0,13.8-39.71c1.38-7.22,2.18-14.61-.68-22-3.59-9.29-11.62-13-20.74-9.12-6.9,3-12.75,7.54-18.16,12.55a100.72,100.72,0,0,0-24.34,34.5c-5.52,12.83-8.51,26.11-10.69,39.79-.81,4.8.69,10-1.9,14.44-7.42,12.67-15.17,25-28.4,32.77-13.56,8-24.62,5-33.34-6.82-7.74-10.53-9.76-29.42-5.12-45,.68,2.9-.81,6.13,1.77,8.63a19.91,19.91,0,0,0,1.26-4.23,68.13,68.13,0,0,1,10.77-32.17c4.48-6.9,8.64-14.28,17-17.67,3.71-1.53,7.54-2.42,10.37.52,2.42,2.55,2.95,5.9,1.9,10-2.14,8.56-7.39,15-13,21-6.57,7-14,13.31-22.64,17.79-2.22,1.13-2.58,2.54-2.42,4.56.16,2.46,2.14,1.09,3.27,1.53,3.92,1.58,7.83.17,11.62-.12,11.14-.92,21.43-4.48,29.87-12.22,16.58-15.26,20.21-34.79,16-55.69-4-20.14-20.14-28.89-38.3-22.84-7.22,2.42-12.79,7.54-17.68,13.72-16.22,20.58-24,44.23-25.94,69.93A123.7,123.7,0,0,0,292,721c1.42,9.25,3.72,18.08,8.88,25.91,6.5,9.93,15.25,16.06,27.56,16.47,11.38.4,20.34-4.77,28.33-12,7.67-6.94,12.75-15.9,18.36-24.7a7.94,7.94,0,0,1,1.21,1.94,75.42,75.42,0,0,0,7.75,22c4.28,8.11,11.06,12.39,20.06,12.63,12.51.37,22.39-5.2,30.7-14.24,5.25-5.73,5.94-5.61,9,1.05,6.82,14.81,24.42,16.18,35.88,9.16,7.42-4.56,11.46-12,16.3-18.85,1.37,2.63,2.7,5.29,4.16,7.87,3,5.33,6.05,10.78,12.26,13.12,8.72,3.35,20.34-1.5,26.68-10.61,4.44-6.42,7.75-13.52,12.18-20.38,2,5.93,3.6,11.58,6.06,17,4.84,10.69,13.92,17.55,25.94,14,6.9-2.06,11.71-7,15.74-12.59,3.84-5.33,7.1-11.1,10.82-17,3.31,5.81,5.81,11.18,9.08,16.22,14,21.59,42.85,20.7,59.15,5.61,8.48-7.83,15.06-17,21.23-26.88a112.55,112.55,0,0,0,7.18,15.78c8.11,13.88,18.89,22.6,36.28,22,13.32-.45,23.08-6.86,31.72-15.62,5.37-5.41,9.48-12.07,14.16-18.24.45,1.17.81,2.34,1.29,3.51,2.55,6.17,4,12.71,7.63,18.52,7.67,12.19,24.17,12,32.44,3.15,6.78-7.3,11.46-15.74,16.06-24.33,1-1.94,1.34-4.4,3.52-5.73,3,9.32,6.45,18.28,12.5,25.78C869.63,761,879.4,767,891.87,765c11.86-1.9,21-9,27.72-18.85,6.17-9,11.74-18.48,14.65-29.17.4-1.45,1.29-2.26,2.78-2,1.21.2,2.22,1,1.9,2.3-1.78,7.47-.53,15-.77,22.52a55.63,55.63,0,0,0,3.79,21.71c1.09,2.74,2.18,5.49,5.53,6.9,1.13-5.85,1.86-11.46,3.31-16.87,8-29,17.35-57.46,35.67-82,4.52-6,9.37-11.54,16.18-15.33-1.57,1.33-.52,3.07-1,4.6-4.2,13.48-7.83,27.2-9.08,41.24-1.25,13.76-.89,27.72,3.75,41.08,2.18,6.34,4.6,12.95,10.13,17.19,9.8,7.55,18.8,5.09,27.12-2.94,14.2-13.68,20.21-31.8,25.5-50.12.64-2.38,2.22-4.4,2.14-7.19S1059.29,694.36,1057.52,693.8Zm-136.72,23c-3.31,11.18-8.19,21.14-18.81,27-11.74,6.38-26.83,4.64-34.7-9.16a.3.3,0,0,1-.16.08v0a1.17,1.17,0,0,1-.08-.36c-5-5.77-5.93-13.11-7.23-20.1-2.9-15.65,1.66-30.34,7.59-44.67a3,3,0,0,1,1.86-1.93c-3.51,14-6.14,27.84-5.69,42a99.76,99.76,0,0,0,3.47,24.66,1.06,1.06,0,0,0,.2.24s0,0,0,.08c3.31-1.21,1-4,.89-5.65-.29-5.32-.45-11-2-15.9-4.08-12.83-.36-24.85,3.47-36.39,4.52-13.64,12.51-25.47,26.19-32.17,3.35-1.61,7.14-2.13,10.09-.56s2.42,5.73,2.06,8.84c-.69,5.57-2.71,11.13-2.63,16.7.21,13.2.37,26.6,12.47,36C921.16,708,922.17,712,920.8,716.76Zm4.64-23.17c-.08.85-1,1.7-1.53,2.55-.69-.65-1.66-1.17-2-2-4.76-10.69-6.46-21.59-1.49-32.77.72-1.65,1.57-3.71,3.42-3.35s2.47,2.3,2.79,4.44a65.81,65.81,0,0,1,.73,13.4C928.59,681.57,925.92,687.46,925.44,693.59Z" transform="translate(-18.77 -311.59)"/><path d="M867.25,734.47s0,0,0,.08a.3.3,0,0,1-.16.08Z" transform="translate(-18.77 -311.59)"/><path d="M33.9,377.29A209.43,209.43,0,0,1,53.13,350a119.17,119.17,0,0,1,28.09-24.92,88.41,88.41,0,0,1,32.57-12.41,81.86,81.86,0,0,1,19.31-.86c10,.65,19.49,3.39,28.79,7.1,13.46,5.37,25.58,13,37,21.71,5,3.84,9.83,8,14.55,12.23,7,6.26,13.54,12.9,20,19.68a243.64,243.64,0,0,1,21.65,26.29c3.27,4.61,6.34,9.36,9.78,14.45-2.87-.53-4.12-2.58-5.77-3.88q-13-10.32-26.48-20a333.26,333.26,0,0,0-29.5-19.06,255,255,0,0,0-29.21-14.47,204.25,204.25,0,0,0-33.52-11,157.23,157.23,0,0,0-21.74-3.12,96.42,96.42,0,0,0-14.63.2,93.59,93.59,0,0,0-20.5,3.82A98.75,98.75,0,0,0,52.33,361.6a18.74,18.74,0,0,0-3.19,3.23c-2.43,2.3-5.15,4.29-7.42,6.78-1.34,1.46-2.66,2.95-4.07,4.35C36.67,376.93,35.65,378.28,33.9,377.29Z" transform="translate(-18.77 -311.59)"/><path d="M33.9,377.29a9.22,9.22,0,0,0,3.89-2.72c3.52-3.53,6.2-8.1,11.36-9.74A249.08,249.08,0,0,0,45.79,393a136.76,136.76,0,0,0,.33,20.36,154,154,0,0,0,6.1,33A175.27,175.27,0,0,0,64.75,477.3a218.83,218.83,0,0,0,21.47,33.14A204.26,204.26,0,0,0,108,534.8a278.34,278.34,0,0,0,23.07,19.61c6,4.54,12,9.24,18,13.88,1,1.55,2.56,3,1.53,5.15-14.24-8.81-28-18.31-41.48-28.27C102.2,540,95.56,534.51,89,528.91a314.72,314.72,0,0,1-23-21.57,292.55,292.55,0,0,1-27.41-32.9,114,114,0,0,1-16.69-33.91A72.1,72.1,0,0,1,19,413.85a63.45,63.45,0,0,1,10.53-29.72C31,381.87,32.45,379.57,33.9,377.29Z" transform="translate(-18.77 -311.59)"/><path d="M861.53,547.6c.25,14.78-.33,28-3.75,41.11-3.26,12.46-13.55,21.25-27.15,19.61-5.6-.68-9.18-5.3-9.63-13.34s3.92-14.22,9.63-19.5c7.08-6.56,16.52-9.83,23.28-16.9C856.74,555.61,858.52,552,861.53,547.6Z" transform="translate(-18.77 -311.59)"/><path d="M343.43,552.64c-8.1,5.14-17.85,7-26.35,11.8-7.72,4.38-10.43,11.92-6.89,19.95,2.36,5.36,10.17,8.22,18.11,6.29a14.81,14.81,0,0,1,7.23-.24c-.66,3.18-3.32,3.86-5.56,4.75-8.34,3.31-20.82-.57-24.38-7.46-4.66-9-1.55-20.5,6.79-26.33,6.84-4.78,15-6.19,22.47-9.2,8.65-3.48,11.13-8.84,8.69-17.25-1.8-6.2-11.24-7.77-17.28-6.56-5.09,1-10.16,2.11-15.44,3.21,0-2.13,1.38-2.83,2.75-3.61,7.81-4.45,16.06-5.94,24.88-3.77a14.93,14.93,0,0,1,10.83,13.69c.63,17.39-1.49,34.73-1,52.11.06,2.24-.1,5.17-3.29,4.6-2.66-.48-2.78-3.06-2.06-5.43a7,7,0,0,0,.5-1.84C343.43,576,343.43,564.56,343.43,552.64Z" transform="translate(-18.77 -311.59)"/><path d="M288.05,585.79c-4.86,5.41-9.65,8.88-16.12,10.23-13.55,2.83-23.27-3.72-25.33-17.53-2-13.47-.21-26.8.88-40.17.21-2.57.06-5.16.11-7.74,0-1.88-.36-4.45,2.48-4.24,2.33.17,1.42,2.61,1.31,4-1.17,14.61-.78,29.25-.95,43.87-.08,6.55,1.3,12.4,7.75,15.19,7.45,3.22,14.95,3,21.33-2.76,7.11-6.45,9.3-15.17,9.62-24.25.38-10.72.9-21.42,2-32.09.18-1.75-.16-4,2.33-4,2.26.07,2.55,2.86,2.31,4-1.33,6.53-.08,13.16-1.21,19.63a23.31,23.31,0,0,0-.49,5.24c.69,11.75-1.36,23.42-1,35.15.05,1.81.22,3.61-2.59,3.51-2.58-.08-2.15-1.82-2.23-3.37C288.2,589.29,288.15,588.08,288.05,585.79Z" transform="translate(-18.77 -311.59)"/><path d="M446.16,525.64c-13.15-6.77-26.11,0-32,13.4-4.88,11.22-5.32,23.08-2.78,34.79,3,14,10,22.27,25.62,21.91,5.73-.16,11-2.18,14.49-7.51-3.15.81-6.29,1.82-9.48,2.34-5.61.93-11.26,1.13-16-2.78-8.4-6.82-11.22-16.06-10.86-26.47.12-3.19,1.41-6.26,5.33-6.14,10,.33,20-1.09,29.86.85,3.87.77,6.21-1.09,7.18-4.64C459.76,543.36,453.59,529.48,446.16,525.64Zm7.59,21.55c-.65,2.91-2.7,4.12-5.61,4.08-4.68,0-9.32,0-14,0-4.36,0-8.68-.08-13,0-4.11.12-5.56-2.26-5-5.81,2.58-15.13,18-22.76,29.54-15.66C449.8,532.34,454.84,542.63,453.75,547.19Z" transform="translate(-18.77 -311.59)"/><path d="M945.14,568c-1.47,8.09-1.67,15.48-5.59,21.93-2.7,4.46-7.33,5.12-12,5.35-7.37.36-14.82,2.22-21.82-2.21-4-2.55-6.68-6.11-10.29-11.19C914.43,584.84,929.24,576.23,945.14,568Z" transform="translate(-18.77 -311.59)"/><path d="M380.43,587.64c7.15-20.31,13.91-39.52,20.73-58.71.48-1.35.24-3.82,2.5-3.47s1.82,2.73,1.73,4.38c-.31,5.7-3.25,10.63-5,15.87-5.12,15.07-10.77,29.95-16,45-.84,2.39-1.7,4-4.45,4.18-3.08.19-3.77-2.05-4.39-4.19q-7.83-27-15.53-54.08c-.86-3-2.42-5.94-2-9.3.16-1.2.3-2.5,1.46-2.8,1.78-.45,1.37,1.39,1.74,2.26,5,11.58,7.8,23.87,11.29,35.94C374.78,570.74,377.12,578.77,380.43,587.64Z" transform="translate(-18.77 -311.59)"/><path d="M867.25,734.47s0,0,0,.08a.3.3,0,0,1-.16.08Z" transform="translate(-18.77 -311.59)"/><path d="M867.05,734.23a1.06,1.06,0,0,0,.2.24s-.12.16-.12.12A1.17,1.17,0,0,1,867.05,734.23Z" transform="translate(-18.77 -311.59)"/><path d="M269.44,686.13c-4.4-14.45-11.83-27.94-21.76-40.73-13.09-16.86-29-32-46.7-46.15-8-6.36-16.78-12.12-25.56-17.86-11.17-7.31-22.84-14.11-34.82-20.6-6.35-3.45-12.61-7-19.4-9.95-.12,2.11,1.64,3.79,2.25,5.74a164.69,164.69,0,0,1,21.74,13.52c11.68,8.82,22.3,18.39,33.05,27.87a326.35,326.35,0,0,1,25.09,24.11c12.23,13.36,22.89,27.38,30.73,42.62,4.32,8.41,7.77,17,8.77,25.94a51.91,51.91,0,0,1-1.24,20.3c-3.72,13-11.89,23.56-26.29,31.29A78.35,78.35,0,0,1,197.8,749c-10.11,2.09-23.34.63-23.34.63h0a204.81,204.81,0,0,1-21-3.86c-21.38-4.87-40.89-12.71-59.86-21.4l-49.4-24.4,42.48,23.93h.11a287.83,287.83,0,0,0,69.44,28A222.31,222.31,0,0,0,179.72,758c10.6,2.21,21.32,4,32.41,3.8,5.91-.1,11.8.2,17.74-.49,13.36-1.56,24.63-5.54,32.42-14.35,6.91-7.8,9.46-16.71,10.25-25.76C273.56,709.48,273,697.7,269.44,686.13Z" transform="translate(-18.77 -311.59)"/></svg>